<?xml version="1.0" encoding="utf-8"?>
<svg height="2500" viewBox="-63.04101753 4.22 290.17725484 282.19386925" width="1875" xmlns="http://www.w3.org/2000/svg">
  <path d="M 82.043 28.517 C 19.567 28.517 -17.713 50.611 -17.713 50.611 L -16.953 100.922 C -16.953 124.017 -9.408 222.281 82.042 275.779 C 173.542 222.281 181.041 124.049 181.041 100.917 L 181.797 50.61 C 181.797 50.611 144.545 28.517 82.043 28.517" fill="#231f20"/>
  <path d="M 178.045 54.222 C 178.045 54.222 145.547 33.517 82.043 33.517 C 18.547 33.517 -13.954 54.222 -13.954 54.222 L -12.957 100.918 C -12.957 119.214 -9.455 217.223 82.043 270.412 C 173.543 217.232 177.04 119.219 177.04 100.918 L 178.045 54.222 Z" fill="#fff200"/>
  <path d="M 182.049 34.218 L 82.043 17.22 L -17.954 34.218 L -17.704 50.998 C -17.704 50.998 32.548 29.186 82.043 29.191 C 131.542 29.191 181.793 50.998 181.793 50.998 L 182.049 34.218 Z" fill="#ed1c24"/>
  <path d="M -17.954 29.219 L -17.954 23.222 L 82.051 4.22 L 182.049 23.222 L 182.049 29.223 L 82.043 10.722 L -17.954 29.219 Z" fill="#009a4e"/>
  <path d="M 79.791 41.263 C 79.791 41.263 79.684 42.346 79.427 42.979 C 79.195 43.558 78.559 43.958 78.603 44.345 C 78.644 44.737 79.061 45.192 79.689 45.52 C 80.317 45.843 80.57 46.094 81.206 46.258 C 81.798 46.399 82.547 46.841 82.768 46.34 C 82.983 45.843 82.657 45.219 82.292 44.628 C 81.666 43.604 81.354 43.357 80.427 41.937 C 80.23 41.636 80.071 41.303 79.791 41.263 M 75.105 152.422 C 75.164 152.244 76.653 153.173 77.418 153.629 C 79.035 154.594 79.768 155.168 81.2 156.251 C 82.168 156.977 83.107 157.739 84.016 158.537 C 85.414 159.738 86.166 160.764 86.543 160.521 C 87.08 159.867 85.65 157.962 84.383 156.924 C 83.149 155.917 81.876 155.088 80.886 154.429 C 79.622 153.601 79.511 153.4 77.614 152.129 C 75.581 150.767 73.823 149.06 73.823 149.06 L 71.84 147.498 L 68.739 144.879 L 65.299 141.701 L 62.692 138.805 C 62.692 138.805 60.668 136.328 60.347 135.859 C 60.026 135.381 59.075 133.851 58.282 132.553 C 57.576 131.392 56.215 129.584 56.085 129.429 C 55.352 128.536 53.669 128.896 51.721 127.744 C 49.344 126.346 48.775 125.071 48.775 125.071 C 48.775 125.071 48.682 124.88 48.598 124.779 C 48.509 124.67 48.327 124.55 48.327 124.55 L 47.091 123.675 L 46.378 123.206 C 46.378 123.206 45.832 122.76 45.151 122.468 C 44.475 122.172 42.956 121.289 42.956 121.289 L 40.242 119.559 C 40.242 119.559 39.179 118.703 38.824 118.421 C 38.471 118.143 37.8 117.761 37.8 117.761 C 37.8 117.761 37.374 117.542 37.244 117.538 C 37.115 117.529 36.555 117.474 36.555 117.474 C 36.555 117.474 36.034 117.342 35.501 117.966 C 34.966 118.59 35.091 118.258 35.959 121.778 C 36.298 123.176 36.266 128.075 36.635 129.56 C 37.111 131.481 38.447 133.958 38.584 134.25 C 38.723 134.537 38.816 135.612 38.816 135.612 C 38.816 135.612 38.761 136.477 38.855 137.023 C 39.265 139.55 42.967 137.888 43.782 141.357 C 44.59 144.783 43.302 148.202 43.302 148.202 C 43.302 148.202 42.501 149.896 41.383 150.17 C 40.258 150.434 38.519 147.952 37.259 145.936 C 36.018 143.959 34.998 141.365 34.673 140.54 C 34.345 139.72 34.177 139.538 33.801 138.933 C 33.245 138.05 32.792 138.204 32.173 136.807 C 31.551 135.4 32.102 134.835 31.818 133.61 C 31.661 132.932 31.511 132.859 31.301 131.889 C 31.092 130.919 30.816 127.85 30.816 127.85 L 30.424 124.981 C 30.424 124.981 30.283 123.674 30.108 122.859 C 29.477 119.995 29.268 117.226 29.268 117.226 L 29.152 116.092 L 29.104 114.917 C 29.104 114.917 29.068 114.348 29.207 113.77 C 29.348 113.187 29.633 112.705 29.633 112.705 C 29.633 112.705 30.207 111.735 30.305 111.498 C 30.403 111.266 31.587 109.895 31.587 109.895 C 31.587 109.895 32.197 109.39 33.208 108.761 C 34.216 108.142 35.129 108.192 35.129 108.192 C 35.129 108.192 35.391 108.16 37.18 108.383 C 38.976 108.611 42.66 109.585 43.582 109.831 C 44.502 110.073 45.592 110.459 46.31 110.851 C 48.357 111.967 48.978 111.493 47.346 110.223 C 46.251 109.363 45.944 108.98 45.06 108.17 C 44.315 107.491 43.728 107.031 43.173 106.399 C 42.622 105.761 41.028 103.417 41.028 103.417 L 40.04 101.951 C 40.04 101.951 39.502 101.359 39.418 101.313 C 39.297 101.233 39.179 101.148 39.065 101.058 C 39.065 101.058 38.412 101.095 37.731 100.958 C 37.05 100.831 36.729 101.782 36.729 101.782 C 36.729 101.782 35.256 104.532 33.758 106.217 C 31.338 108.949 29.598 110.811 28.704 112.259 C 27.454 114.276 27.725 116.485 27.08 117.505 C 26.705 118.106 26.502 118.193 26.297 118.716 C 25.669 120.3 27.952 121.17 27.431 122.928 C 26.6 125.715 20.068 128.474 19.201 128.01 C 18.306 127.536 19.039 123.771 19.342 122.546 C 19.65 121.321 20.563 119.523 20.647 119.427 C 20.731 119.336 20.95 118.913 21.021 118.553 C 21.091 118.189 21.114 117.378 21.16 116.918 C 21.203 116.467 21.386 115.748 21.386 115.748 C 21.386 115.748 21.418 115.602 21.991 114.341 C 22.57 113.084 24.696 110.156 26.226 107.361 C 27.219 105.535 27.642 104.428 28.644 102.611 C 29.573 100.926 31.153 98.372 31.153 98.372 C 31.153 98.372 31.825 97.065 32.141 96.578 C 32.46 96.081 33.127 95.135 33.75 94.21 C 34.381 93.286 34.538 92.589 35.364 91.828 C 36.05 91.195 36.51 90.858 37.402 90.567 C 38.73 90.13 39.64 90.371 40.988 90.745 C 42.4 91.132 43.365 91.774 44.282 92.539 C 44.862 93.03 45.398 93.571 45.883 94.156 L 46.327 94.812 L 46.6 94.976 L 47.458 95.522 L 49.412 96.82 C 49.412 96.82 54.047 99.971 54.3 100.139 C 54.55 100.303 55.377 100.986 55.548 101.045 C 55.716 101.091 56.953 99.756 59.373 98.081 C 62.176 96.142 63.173 96.291 64.09 95.786 C 65.01 95.281 65.392 94.857 66.11 94.138 C 67.196 93.045 67.201 92.471 68.437 90.951 C 69.678 89.43 70.843 88.583 70.843 88.583 C 70.843 88.583 71.011 88.415 73.224 85.919 C 75.439 83.419 76.414 81.529 76.414 81.529 L 77.632 79.102 C 77.632 79.102 79.39 75.327 79.954 73.833 C 80.517 72.335 80.517 71.83 80.517 71.83 C 80.517 71.83 80.601 71.443 80.169 70.683 C 79.734 69.922 79.283 70.268 78.448 70.441 C 76.831 70.783 75.855 70.364 74.229 70.082 C 72.735 69.827 71.957 69.39 70.465 69.135 C 68.953 68.88 68.068 68.639 66.553 68.784 C 66.24 68.821 65.931 68.885 65.629 68.975 C 64.78 69.262 64.539 69.326 63.903 69.69 C 63.168 70.041 62.683 70.154 61.865 70.172 C 61.302 70.181 60.956 70.199 60.435 69.995 C 60.075 69.858 59.875 69.753 59.585 69.498 C 59.433 69.365 59.3 69.211 59.189 69.042 C 59.175 68.878 59.123 68.887 59.278 68.632 C 59.426 68.368 59.622 68.322 59.622 68.322 L 60.319 68.149 C 60.319 68.149 61.298 67.889 61.38 67.871 C 61.469 67.848 62.402 67.543 62.812 67.415 C 63.229 67.283 63.68 67.046 63.68 67.046 C 63.68 67.046 63.937 66.65 63.835 66.413 C 63.719 66.153 63.164 66.135 63.164 66.135 C 63.164 66.135 62.381 66.413 62.292 66.431 L 60.971 66.85 C 60.971 66.85 59.992 67.064 59.236 67.242 C 58.478 67.415 57.39 67.501 57.39 67.501 L 57.064 67.415 C 57.064 67.415 56.686 67.165 56.631 66.915 C 56.579 66.683 56.542 66.505 56.499 66.246 C 56.342 65.285 56.15 64.698 56.369 63.75 C 56.462 63.354 56.556 63.14 56.729 62.767 C 56.872 62.453 56.966 62.28 57.152 61.988 L 57.757 61.014 L 58.886 59.343 C 59.209 58.994 59.591 58.705 60.013 58.487 C 60.737 58.082 61.156 57.964 62.051 57.863 C 62.939 57.772 63.055 57.781 64.31 57.499 C 65.569 57.217 66.459 56.716 66.459 56.716 C 66.459 56.716 69.462 55.614 71.295 54.713 C 73.21 53.775 74.054 52.764 76.044 51.985 C 76.757 51.699 77.49 51.466 78.237 51.288 C 78.337 51.232 78.408 51.136 78.433 51.024 C 78.522 50.706 78.028 50.555 77.695 50.592 C 77.401 50.619 76.716 50.933 76.559 50.596 C 76.436 50.327 77.187 50.173 77.187 50.173 C 77.187 50.173 77.538 50.009 77.542 49.809 C 77.555 49.513 77.034 49.704 76.804 49.681 C 75.643 49.554 75.55 49.34 74.743 49.139 C 73.787 48.902 73.27 48.611 72.291 48.574 C 71.415 48.533 70.597 48.724 70.058 48.856 C 69.512 48.988 69.494 48.456 69.707 48.356 C 71.237 47.641 71.269 47.577 72.346 47.532 C 72.938 47.509 73.764 47.641 73.853 47.682 C 73.942 47.728 75.121 47.669 75.429 47.364 C 75.732 47.063 74.454 47.077 73.853 46.84 C 73.302 46.617 72.453 46.558 72.473 46.189 C 72.496 45.82 72.91 46.021 73.2 45.952 C 73.564 45.866 73.783 45.87 74.156 45.815 C 74.832 45.724 74.894 45.669 75.895 45.578 C 76.893 45.492 78.325 45.906 78.325 45.906 C 78.325 45.906 79.821 46.575 80.558 46.921 C 81.295 47.272 82.186 47.445 82.186 47.445 C 82.186 47.445 83.223 47.6 84.027 47.094 C 84.835 46.593 84.381 46.274 84.091 45.819 C 83.816 45.386 83.466 44.777 83.984 43.602 C 84.441 42.578 84.673 41.394 84.81 41.284 C 84.962 41.152 85.607 42.063 86.011 42.445 C 87.474 43.811 89.423 44.494 91.247 47.363 C 91.39 47.595 92.081 47.226 94.204 47.55 C 96.329 47.878 98.175 50.154 98.651 50.696 C 99.13 51.238 99.757 51.219 99.757 51.219 L 100.778 51.351 L 104.485 51.414 C 104.485 51.414 106.169 51.118 107.138 51.482 C 107.817 51.732 110.076 53.244 109.046 53.823 C 108.324 54.223 107.645 53.34 106.997 53.295 C 106.226 53.245 105.886 53.386 105.201 53.559 C 103.763 53.923 100.677 54.857 101.796 55.235 C 101.888 55.262 102.033 55.294 102.033 55.294 L 102.597 55.385 C 102.597 55.385 103.952 55.695 104.763 56.018 C 106.007 56.51 106.581 57.051 107.738 57.721 C 108.38 58.099 108.673 58.477 109.382 58.686 C 110.038 58.877 110.452 58.682 111.122 58.8 C 112.001 58.955 112.497 59.128 113.298 59.515 C 114.485 60.093 114.929 60.785 116.003 61.555 C 116.531 61.942 116.979 62.006 117.378 62.525 C 117.47 62.643 117.552 62.698 117.589 62.839 C 117.735 63.317 116.807 63.035 116.315 62.958 C 115.772 62.867 115.536 62.598 115.04 62.366 C 114.302 62.025 113.946 61.633 113.136 61.483 C 112.544 61.374 112.198 61.465 111.597 61.492 C 111.019 61.519 110.701 61.61 110.122 61.619 C 109.124 61.633 108.556 61.541 107.581 61.341 C 106.489 61.113 105.952 60.681 104.849 60.458 C 103.63 60.203 101.443 59.151 101.661 60.198 C 101.766 60.708 102.927 61.132 102.927 61.132 C 102.927 61.132 103.706 61.565 104.466 61.892 C 105.228 62.22 105.638 62.716 105.638 62.716 L 106.161 63.108 C 106.161 63.108 106.698 63.846 107.395 64.67 C 108.089 65.499 109.3 65.476 109.3 65.476 C 109.3 65.476 110.038 65.476 111.628 65.799 C 113.208 66.127 114.837 67.101 114.837 67.101 C 114.837 67.101 116.076 67.943 116.786 68.795 C 117.501 69.637 117.091 70.07 117.005 70.161 C 116.919 70.247 116.942 70.202 116.856 70.247 C 116.77 70.288 115.877 69.186 115.877 69.186 L 115.248 68.64 C 115.248 68.64 114.618 68.207 113.813 67.943 C 113.01 67.684 112.752 67.861 112.752 67.861 C 112.752 67.861 111.039 68.335 109.564 68.294 C 108.086 68.253 107.303 67.666 107.303 67.666 L 106.369 67.038 C 106.369 67.038 104.963 65.718 104.918 66.341 C 104.885 66.765 105.537 67.234 105.537 67.234 C 105.537 67.234 105.996 67.694 106.293 67.981 C 106.856 68.536 107.084 68.819 107.735 69.401 C 108.385 69.988 108.797 69.988 108.797 69.988 C 108.797 69.988 109.148 70.07 109.278 70.093 C 109.405 70.115 109.643 70.184 109.643 70.184 C 109.643 70.184 109.862 70.266 110.881 70.681 C 111.901 71.095 112.988 71.983 112.988 71.983 C 112.988 71.983 113.092 72.074 113.244 72.092 C 113.398 72.114 113.703 72.26 113.789 72.288 C 113.877 72.31 114.137 72.31 114.723 72.392 C 115.307 72.483 115.092 72.852 115.092 72.852 L 114.983 73.002 L 114.506 73.325 C 114.506 73.325 113.877 73.503 113.44 73.521 C 113.006 73.543 112.401 73.307 112.401 73.307 L 111.078 72.807 C 111.078 72.807 109.754 72.461 109.474 72.415 C 108.915 72.318 108.359 72.211 107.804 72.092 C 107.477 72 107.157 71.885 106.847 71.746 C 106.693 71.655 106.392 71.591 105.681 71.245 C 104.962 70.894 104.675 70.485 103.786 70.202 C 102.899 69.92 102.356 69.861 101.682 70.334 C 100.536 71.126 103.421 71.254 104.866 71.969 C 106.983 73.011 108.179 73.786 108.69 74.915 C 109.196 76.049 109.711 76.463 109.711 76.463 C 109.711 76.463 111.198 77.214 111.877 78.002 C 112.241 78.425 112.301 78.781 112.659 79.209 C 113.483 80.166 115.069 80.12 115.389 80.935 C 115.69 81.695 114.104 81.354 113.276 81.276 C 111.782 81.13 111.425 79.769 110.034 79.213 C 109.251 78.903 108.745 78.899 107.94 78.63 C 106.483 78.148 105.798 77.514 104.333 77.059 C 103.45 76.79 101.839 75.616 102.03 76.517 C 102.079 76.74 102.202 76.904 102.27 77.036 C 102.333 77.168 102.704 77.641 102.704 77.641 C 102.704 77.641 103.204 78.297 103.423 78.465 C 103.638 78.643 104.589 79.358 105.937 80.095 C 107.285 80.832 108.451 82.244 108.451 82.244 C 108.451 82.244 108.851 82.818 109.044 83.223 C 109.242 83.669 109.107 83.806 109.406 84.434 C 109.714 85.062 109.863 85.181 110.255 85.563 C 111.238 86.519 112.268 86.328 113.533 86.847 C 113.87 86.979 113.896 87.038 114.269 87.43 C 114.634 87.822 114.201 87.995 114.201 87.995 C 114.201 87.995 112.805 88.346 111.902 88.273 C 110.726 88.177 110.21 87.822 109.06 87.257 C 107.914 86.693 107.302 85.673 107.193 85.604 C 107.085 85.54 106.806 85.235 106.589 85.08 C 106.37 84.934 105.817 84.811 105.311 84.67 C 104.811 84.533 104.509 84.511 104.007 84.37 C 103.317 84.174 102.597 83.869 102.274 83.764 C 101.946 83.655 101.196 83.518 100.657 83.842 C 99.565 84.484 102.339 84.925 103.208 85.841 C 103.649 86.315 103.827 86.642 104.247 87.125 C 104.565 87.499 104.696 87.763 105.093 88.059 C 105.366 88.26 105.855 88.469 105.855 88.469 C 105.855 88.469 106.523 88.779 107.499 89.316 C 108.482 89.858 109.63 91.379 109.63 91.379 L 110.322 92.44 L 110.74 93.05 L 110.845 93.332 L 110.995 93.678 C 110.995 93.678 111.495 94.329 111.864 94.543 C 112.233 94.761 112.169 94.957 112.169 94.957 C 112.169 94.957 112.124 95.089 111.864 95.24 C 111.604 95.395 111.47 95.262 111.104 95.153 C 110.729 95.049 110.499 94.698 110.173 94.438 C 109.845 94.174 109.488 93.523 108.89 93.154 C 108.366 92.84 107.677 92.726 107.413 92.635 C 107.152 92.549 106.503 92.139 106.242 92.03 C 105.982 91.921 105.308 91.615 105.308 91.615 C 105.308 91.615 103.997 90.878 103.287 90.682 C 102.567 90.486 103.022 90.928 103.022 90.928 C 103.022 90.928 103.672 91.93 104.289 92.335 C 105.09 92.868 106.215 93.336 105.852 93.765 C 105.606 94.052 105.268 93.947 104.899 93.902 C 104.298 93.838 103.571 93.114 103.571 93.114 C 103.571 93.114 103.27 92.918 101.925 92.486 C 100.577 92.048 101.072 92.791 101.378 93.178 C 101.684 93.57 102.1 93.788 102.1 93.788 L 103.003 94.198 L 103.423 94.33 C 103.423 94.33 103.786 94.394 105.007 94.676 C 106.218 94.958 106.893 95.541 106.893 95.541 C 106.893 95.541 107.544 96.156 108.452 96.825 C 109.372 97.494 110.278 97.672 110.774 97.74 C 111.274 97.799 111.253 98.15 111.253 98.15 C 111.253 98.15 111.321 98.473 111.298 98.582 C 111.275 98.691 111.165 98.778 111.062 98.778 C 110.947 98.778 110.906 98.819 110.775 98.887 C 110.648 98.951 110.124 99.037 110.124 99.037 C 110.124 99.037 108.759 98.992 107.697 98.737 C 106.632 98.473 105.704 97.739 105.611 97.69 C 105.529 97.649 104.527 97.107 103.857 96.888 C 103.179 96.67 102.12 96.761 102.013 96.802 C 101.904 96.847 101.534 96.911 100.902 97.084 C 100.275 97.257 101.058 97.494 101.058 97.494 L 101.513 97.544 L 102.597 97.626 C 102.597 97.626 103.702 97.758 104.66 98.109 C 105.61 98.45 106.221 99.147 106.848 99.776 C 107.25 100.171 107.695 100.521 108.174 100.818 L 108.67 101.141 L 108.934 101.337 L 108.998 101.51 C 108.998 101.51 108.978 101.601 108.934 101.706 C 108.889 101.82 108.739 101.902 108.739 101.902 C 108.739 101.902 108.498 101.861 108.387 101.861 C 108.278 101.861 107.573 101.483 107.049 101.251 C 106.492 101.005 106.215 100.787 105.633 100.646 C 105.127 100.523 104.461 100.473 104.317 100.514 C 104.164 100.555 103.055 100.71 102.205 100.774 C 101.342 100.853 100.474 100.838 99.614 100.729 C 98.178 100.556 96.28 99.427 96.039 99.745 C 95.543 100.396 97.063 100.592 97.789 101.011 C 98.795 101.589 100.539 102.122 100.539 102.122 C 100.539 102.122 101.806 102.405 102.551 102.75 C 104.183 103.506 104.678 104.622 105.986 105.806 C 106.715 106.471 107.289 106.753 108.262 106.894 C 109.097 107.012 109.086 106.916 110.41 106.657 C 111.729 106.393 112.541 105.136 112.924 105.591 C 113.002 105.687 112.972 105.764 112.945 105.896 C 112.924 106.023 112.816 106.265 112.816 106.265 C 112.816 106.265 112.666 106.483 112.428 106.72 C 112.191 106.957 111.277 107.458 110.803 107.654 C 110.324 107.85 109.15 108.173 107.678 108.128 C 106.199 108.087 104.138 106.958 104.138 106.958 L 102.644 106.33 C 102.644 106.33 101.953 106.002 101.496 105.829 C 100.258 105.37 99.475 105.41 98.195 105.069 C 97.398 104.86 96.892 104.636 96.176 104.486 C 95.457 104.34 95.859 104.618 95.937 104.728 C 96.279 105.179 96.719 105.324 97.285 105.593 C 98.037 105.957 98.564 105.885 99.348 106.199 C 100.203 106.554 100.952 107.051 101.424 107.351 C 101.903 107.656 102.252 107.993 102.709 108.48 L 104.293 109.823 C 104.293 109.823 104.662 110.128 104.703 110.256 C 104.748 110.388 104.922 110.711 104.834 111.235 C 104.748 111.758 104.32 111.39 104.32 111.39 L 103.9 111.13 L 103.492 110.738 L 102.818 110.192 C 102.818 110.192 102.252 109.673 101.279 109.172 C 100.303 108.676 99.129 108.544 99.129 108.544 C 99.129 108.544 98.086 108.389 98.127 108.717 C 98.174 109.045 98.414 109.068 99.234 109.281 C 100.058 109.5 100.603 109.909 100.603 109.909 C 100.603 109.909 101.451 110.542 102.051 111.234 C 102.666 111.931 102.834 112.6 102.834 112.6 C 102.834 112.6 103.14 113.165 103.922 113.925 C 104.701 114.686 105.119 114.426 105.069 114.79 C 105.028 115.159 104.676 115.227 104.676 115.227 C 104.676 115.227 104.485 115.205 104.399 115.205 C 104.317 115.205 104.112 115.096 103.897 115.014 C 103.684 114.923 102.86 114.358 102.86 114.358 C 102.86 114.358 101.576 113.32 101.422 113.206 C 101.276 113.101 100.058 112.19 100.058 112.19 C 100.058 112.19 99.347 111.735 98.824 111.471 C 98.303 111.22 97.766 111.003 97.217 110.82 C 96.824 110.693 96.115 110.647 96.115 110.647 C 96.115 110.647 95.24 110.52 94.726 110.324 C 93.892 110.01 92.926 109.122 92.822 109.081 C 92.718 109.036 91.935 108.776 91.785 108.799 C 91.635 108.821 91.287 110.274 91.207 111.112 C 90.852 114.636 91.789 116.972 93.236 120.201 C 95.344 124.895 101.187 130.728 101.187 130.728 C 101.187 130.728 102.654 131.566 103.281 132.058 C 105.031 133.429 107.926 135.364 110.486 137.923 C 112.678 140.117 115.603 144.017 115.603 144.017 C 115.603 144.017 117.283 146.371 118.062 148.033 C 119.023 150.078 119.789 153.183 119.789 153.183 C 119.789 153.183 119.857 153.724 119.92 153.832 C 119.979 153.946 120.121 154.083 120.231 154.088 L 121.252 154.124 C 121.36 154.124 122.519 154.032 123.282 153.842 C 124.047 153.652 125.858 152.826 127.053 152.195 C 128.246 151.57 129.681 150.355 129.681 150.355 C 129.681 150.355 129.951 150.126 131.353 148.57 C 132.754 147.012 133.658 144.676 133.994 143.801 C 134.322 142.918 134.599 141.238 134.808 138.356 C 135.023 135.473 134.631 132.422 134.631 132.422 C 134.631 132.422 134.103 128.169 133.782 126.726 C 133.465 125.278 132.698 122.929 132.698 122.929 C 132.698 122.929 132.162 120.825 131.987 119.5 C 131.823 118.17 131.789 116.017 131.789 116.017 C 131.789 116.017 131.789 114.696 132.227 112.256 C 132.659 109.819 134.157 107.37 134.157 107.37 C 134.157 107.37 134.571 106.551 136.188 104.62 C 137.827 102.657 138.356 102.339 139.977 101.168 C 141.259 100.239 142.932 98.759 143.473 99.105 C 144.075 99.487 142.884 100.239 142.491 100.63 C 141.479 101.627 139.581 103.407 138.046 106.076 C 136.712 108.389 136.216 109.919 135.878 111.426 C 135.546 112.938 135.687 114.586 135.728 115.155 C 135.775 115.719 136.089 115.515 136.089 115.515 C 136.089 115.515 139.339 112.906 141.107 110.92 C 143.029 108.78 144.726 104.969 145.396 104.937 C 145.841 104.914 146.056 105.934 145.951 106.398 C 145.523 108.379 145.388 108.629 144.751 109.932 C 144.005 111.448 143.329 112.122 142.311 113.502 C 141.227 114.959 140.708 115.519 139.843 117.445 C 138.595 120.218 139.322 122.358 139.322 122.358 C 139.322 122.358 139.472 123.66 140.06 123.642 C 141.042 123.61 143.193 120.896 144.595 118.679 C 145.628 117.044 146.005 115.164 146.689 114.18 C 147.298 113.302 147.845 115.605 147.585 116.962 C 147.28 118.569 146.48 120.013 144.731 122.29 C 143.018 124.517 143.077 126.634 143.077 126.634 C 143.077 126.634 142.891 127.604 142.755 129.707 C 142.618 131.811 143.22 134.999 143.22 134.999 C 143.22 134.999 143.765 137.663 143.866 139.689 C 143.966 141.71 143.897 146.333 142.003 149.917 C 141.251 151.36 139.626 153.355 139.626 153.355 C 139.626 153.355 138.392 154.629 137.362 155.376 C 136.339 156.123 133.893 157.274 133.893 157.274 C 133.893 157.274 132.2 157.866 131.954 157.92 C 131.716 157.983 131.554 158.191 131.554 158.191 L 131.781 158.652 C 131.841 158.789 132.318 159.955 132.318 159.955 C 132.318 159.955 132.829 161.617 133.019 162.934 C 133.21 164.241 132.988 164.54 132.796 165.551 C 132.614 166.512 132.191 166.067 132.085 167.96 C 131.989 169.631 132.755 170.465 132.614 172.336 C 132.552 173.154 131.622 171.313 131.177 170.523 C 130.223 168.801 130.454 166.183 130.432 165.533 C 130.405 164.882 130.36 164.167 130.118 163.329 C 129.813 162.271 129.386 161.433 128.884 160.788 C 128.384 160.142 127.855 159.777 127.673 159.837 C 127.501 159.897 127.491 160.242 127.482 160.415 C 127.474 160.588 127.824 161.207 127.911 161.344 C 127.988 161.477 128.622 162.628 128.622 162.628 C 128.622 162.628 128.898 163.507 129.016 165.225 C 129.124 166.946 128.595 169.053 128.595 169.053 C 128.595 169.053 127.911 171.449 127.184 172.846 C 126.378 174.399 124.598 176.512 124.598 176.512 C 124.598 176.512 123.323 177.682 122.368 179.604 C 121.411 181.526 122.231 182.368 121.876 182.604 C 121.513 182.856 120.757 181.502 120.552 180.583 C 120.364 179.736 120.464 179.336 120.802 178.375 C 121.134 177.46 121.904 176.135 121.904 176.135 L 123.06 174.177 C 123.06 174.177 124.431 171.531 124.863 169.618 C 125.301 167.701 124.808 165.579 124.808 165.579 C 124.808 165.579 124.745 164.878 124.271 164.904 C 123.79 164.931 123.443 165.361 123.251 165.865 C 122.851 166.918 123.415 166.73 122.813 168.48 C 122.334 169.859 122.212 169.676 121.96 170.493 C 121.665 171.476 121.501 172.476 121.52 173.093 C 121.542 173.703 121.206 173.447 121.206 173.447 C 121.206 173.447 120.628 172.355 120.628 171.003 C 120.628 170.265 120.655 169.852 120.743 169.117 C 120.874 167.937 121.352 166.131 121.352 166.131 C 121.352 166.131 121.874 164.35 121.761 162.716 C 121.647 161.085 121.073 160.779 121.073 160.779 C 121.073 160.779 120.927 160.555 120.291 160.596 C 119.662 160.637 119.688 161.771 119.688 161.771 C 119.688 161.771 119.498 163.383 119.248 164.385 C 118.551 167.162 117.631 168.614 115.981 170.95 C 114.498 173.063 112.475 174.917 111.469 175.791 C 110.463 176.67 107.365 178.929 107.365 178.929 L 103.74 181.342 C 103.74 181.342 102.302 182.744 101.636 184.415 C 100.968 186.082 101.009 187.389 101.391 188.923 C 101.774 190.453 102.333 191.173 102.62 191.592 C 102.911 192.015 103.472 192.771 103.652 193.646 C 103.765 194.193 103.683 194.525 103.716 195.084 C 103.747 195.565 103.812 195.84 103.802 196.317 C 103.784 197.088 103.925 197.637 103.493 198.266 C 103.165 198.748 102.29 199.159 102.29 199.159 C 102.29 199.159 101.311 199.597 100.724 199.952 C 94.55 203.681 92.355 206.09 88.88 210.247 C 87.769 211.567 88.585 211.489 87.396 213.061 C 86.691 213.999 85.038 213.995 84.437 215.119 C 83.611 216.643 86.318 218.151 83.187 219.5 C 79.165 221.239 72.229 219.996 72.094 219.454 C 71.716 217.95 73.447 216.239 74.056 215.565 C 76.882 212.477 79.404 212.401 80.324 209.85 C 80.52 209.303 80.449 208.834 82.687 207.176 C 84.267 206.006 90.57 201.266 93.32 198.097 C 94.258 197.018 95.078 196.293 95.488 195.118 C 95.898 193.939 95.078 193.191 95.078 193.191 L 93.945 191.347 L 91.781 187.476 C 91.781 187.476 90.875 185.422 90.371 184.234 C 89.873 183.05 88.922 179.84 88.922 179.84 C 88.922 179.84 88.221 176.976 88.108 175.105 C 87.893 171.736 88.358 169.777 89.241 166.521 C 90.389 162.273 92.993 160.501 94.032 156.308 C 94.334 155.092 94.395 153.002 93.782 153.103 C 93.19 153.204 93.139 154.861 92.702 155.961 C 91.026 160.123 88.813 161.949 87.598 166.267 C 86.782 169.181 86.455 170.915 86.463 173.945 C 86.463 175.674 86.4 175.355 86.846 178.361 C 87.01 179.471 87.293 180.06 87.619 181.138 C 87.848 181.904 88.467 183.332 88.467 183.332 C 88.467 183.332 89.342 185.245 89.633 186.579 C 89.733 187.028 89.842 187.294 89.815 187.754 C 89.76 188.551 89.893 188.724 89.51 189.442 C 89.031 190.331 89.328 190.858 87.797 191.19 C 86.455 191.473 83.682 190.586 83.682 190.586 C 83.682 190.586 72.3 187.13 65.035 188.122 C 63.594 188.317 62.824 188.842 61.369 188.813 C 60.06 188.794 59.384 187.766 58.072 188.159 C 57.799 188.241 57.715 188.428 57.48 188.587 C 55.549 189.93 57.024 192.161 51.954 191 C 48.84 190.285 45.069 188.387 45.725 187.185 C 46.597 185.596 47.772 185.336 50.231 184.327 C 52.86 183.252 56.808 183.556 57.583 183.498 C 58.535 183.435 59.905 182.766 61.599 182.736 C 64.532 182.687 65.057 183.033 65.057 183.033 L 70.047 183.47 L 79.582 183.598 C 79.582 183.598 81.287 183.461 81.975 183.333 C 82.656 183.201 83.199 181.857 83.568 181.216 C 83.935 180.579 83.558 179.632 83.558 179.632 L 83.269 179.19 L 82.365 177.724 L 80.684 174.897 L 78.824 171.19 C 78.824 171.19 77.608 168.599 76.955 166.901 C 76.31 165.215 75.937 164.264 75.505 162.515 C 75.056 160.712 74.788 159.25 74.731 157.813 C 74.657 155.741 74.527 154.116 75.105 152.422" fill="#231f20"/>
  <path d="M 137.051 148.979 C 139.049 146.397 139.246 144.011 139.364 140.632 C 139.457 138.182 138.526 134.403 138.526 134.403 L 138.399 134.13 C 138.399 134.13 138.047 133.675 137.832 134.276 C 137.866 134.809 137.936 135.237 137.936 135.237 L 138.054 140.104 C 138.054 140.104 137.899 142.555 137.067 145.082 C 135.659 149.344 131.925 151.252 131.379 152.777 C 130.457 155.336 134.647 152.08 137.051 148.979 M 115.996 156.854 C 115.996 156.854 115.172 157.085 115.158 157.897 C 115.137 158.71 115.357 159.418 115.34 160.391 C 115.317 161.629 114.17 163.079 114.906 163.541 C 116.177 164.343 117.264 158.687 116.879 157.85 C 116.492 157.014 116.117 156.844 115.996 156.854 M 101.824 196.066 C 101.824 196.066 101.592 195.939 101.133 196.111 C 100.678 196.281 100.705 196.755 100.705 196.755 C 100.705 196.755 100.617 197.256 100.986 197.315 C 101.355 197.366 101.965 196.473 101.961 196.365 C 101.953 196.264 101.824 196.066 101.824 196.066 M 88.502 205.529 C 88.502 205.529 88.359 205.67 88.482 205.769 C 88.601 205.861 88.769 205.734 88.769 205.734 C 88.769 205.734 91.074 203.939 92.435 202.67 C 93.881 201.316 95.951 198.99 95.951 198.99 C 95.951 198.99 96.092 198.808 95.93 198.658 C 95.777 198.512 95.371 198.74 95.047 198.894 C 94.76 199.04 94.592 199.207 94.383 199.386 C 94.168 199.564 93.5 200.259 93.5 200.259 L 91.715 201.993 L 90.605 203.036 L 89.517 204.079 L 89.055 204.602 C 89.055 204.602 88.933 204.801 88.906 204.852 C 88.875 204.903 88.752 205.061 88.752 205.061 C 88.752 205.061 88.592 205.221 88.592 205.262 C 88.592 205.303 88.537 205.358 88.533 205.408 C 88.533 205.461 88.502 205.529 88.502 205.529 M 84.516 208.143 C 84.516 208.143 84.262 207.938 83.875 208.143 C 83.482 208.343 83.064 208.885 83.031 208.946 C 82.999 209.005 82.779 209.3 82.927 209.55 C 83.073 209.8 83.572 209.432 83.642 209.418 C 83.714 209.408 84.365 208.902 84.365 208.902 C 84.365 208.902 84.742 208.666 84.516 208.143 M 76.895 215.865 C 76.895 215.865 76.574 215.251 76.146 215.506 C 75.711 215.756 75.483 215.843 75.092 216.38 C 75.026 216.481 74.603 217.026 74.523 217.163 C 74.448 217.305 74.034 218.101 74.883 218.15 C 76.356 218.247 75.395 217.295 75.899 216.929 C 76.309 216.644 77.074 216.715 77.083 216.414 C 77.095 216.12 76.895 215.865 76.895 215.865 M 50.794 185.043 C 50.794 185.043 49.906 185.253 49.842 185.566 C 49.776 185.879 50.359 186.185 50.452 186.199 C 50.55 186.218 50.755 186.445 51.338 186.049 C 51.921 185.653 51.898 185.313 51.898 185.313 C 51.898 185.313 52.242 184.915 50.794 185.043 M 65.153 184.574 C 65.153 184.574 65.144 184.251 64.516 184.287 C 63.885 184.323 63.746 184.441 63.733 184.533 C 63.714 184.633 63.76 184.793 64.329 184.838 C 64.903 184.884 65.135 184.834 65.153 184.574 M 78.718 184.971 C 77.579 184.956 77.944 184.993 77.24 185.03 C 75.963 185.098 75.266 185.045 74.009 184.963 C 72.245 184.851 69.512 184.403 69.512 184.403 C 69.512 184.403 69.168 184.33 69.032 184.544 C 68.903 184.773 69.365 185.241 69.779 185.373 C 72.012 186.069 72.129 185.942 73.658 185.97 C 74.507 185.984 74.983 185.898 75.825 185.842 C 76.893 185.769 77.396 185.933 78.557 185.623 C 78.862 185.544 79.158 184.975 78.718 184.971 M 86.371 182.693 C 86.371 182.693 86.141 182.433 85.672 182.661 C 85.199 182.892 84.916 183.408 84.916 183.408 C 84.916 183.408 84.697 183.75 85.162 183.695 C 85.629 183.64 86.033 183.439 86.152 183.367 C 86.27 183.305 86.608 182.98 86.371 182.693 M 79.711 90.927 C 79.711 90.927 82.949 87.894 85.254 83.896 C 86.629 81.515 87.227 75.964 86.047 77.353 C 85.512 77.977 84.873 80.864 83.852 82.99 C 82.398 86.022 79.289 90.321 79.289 90.321 C 79.289 90.321 78.62 91.756 79.711 90.927 M 66.809 98.609 C 66.809 98.609 66.465 98.869 66.618 99.306 C 66.778 99.743 67.445 99.41 67.445 99.41 C 67.445 99.41 68.927 98.85 70.493 98.786 C 72.066 98.722 74.239 99.191 74.239 99.191 C 74.239 99.191 75.275 99.478 75.45 99.542 C 75.623 99.605 76.188 99.883 76.277 99.916 C 76.37 99.948 76.901 100.216 77.203 99.943 C 77.513 99.67 75.32 97.685 73.087 97.384 C 69.372 96.878 66.924 98.472 66.924 98.472 L 66.809 98.609 Z M 51.484 111.709 C 51.753 111.927 52.998 109.564 54.039 108.071 C 54.799 106.969 56.188 105.134 56.188 105.134 C 56.188 105.134 56.807 104.291 55.751 104.765 C 55.316 104.956 54.137 105.853 53.306 107.506 C 52.597 108.909 51.217 111.481 51.484 111.709 M 42.894 101.423 C 42.894 101.423 42.628 102.329 43.703 103.481 C 44.78 104.628 45.057 105.58 45.745 104.893 C 45.936 104.711 45.074 103.154 44.634 102.726 C 44.37 102.474 44.115 102.213 43.869 101.943 L 43.594 101.715 L 43.232 101.519 L 43.032 101.437 C 43.03 101.437 42.969 101.382 42.894 101.423 M 39.415 92.635 C 39.415 92.635 38.254 92.854 37.964 93.414 C 37.677 93.978 39.303 93.637 39.303 93.637 C 39.303 93.637 40.385 93.7 40.409 93.286 C 40.437 92.872 40.269 92.821 39.415 92.635 M 20.937 123.257 C 20.35 123.079 20.247 124.25 20.172 124.623 C 20.099 125.001 20.434 125.761 20.568 125.752 C 20.709 125.748 21.181 125.01 21.208 124.646 C 21.235 124.281 21.465 123.416 20.937 123.257 M 40.125 146.061 C 40.125 146.061 39.066 145.223 38.903 145.557 C 38.746 145.883 39.779 147.365 39.779 147.365 C 39.779 147.365 40.091 147.846 40.58 147.624 C 41.065 147.401 40.89 146.868 40.89 146.868 C 40.89 146.868 40.563 146.175 40.125 146.061 M 32.118 121.39 C 32.118 121.39 31.849 121.326 31.745 121.649 C 31.647 121.972 31.659 122.51 31.588 123.147 C 31.526 123.652 31.718 124.991 31.718 124.991 C 31.718 124.991 31.821 126.048 32.03 126.694 C 32.26 127.382 32.875 128.361 32.875 128.361 C 32.875 128.361 33.107 128.871 33.387 128.848 C 33.667 128.821 33.603 128.484 33.603 128.484 C 33.603 128.484 32.715 124.955 32.683 124.595 C 32.576 123.425 32.585 121.991 32.585 121.991 L 32.576 121.772 C 32.576 121.772 32.567 121.404 32.118 121.39 M 33.509 110.625 C 33.509 110.625 33.015 110.525 32.567 111.472 C 32.114 112.424 32.207 112.806 32.246 112.851 C 32.282 112.897 32.646 112.883 33.22 112.004 C 33.787 111.129 33.662 110.802 33.662 110.802 C 33.662 110.802 33.63 110.625 33.509 110.625 M 46.964 120.384 C 46.964 120.384 47.561 121.263 46.424 121.062 C 45.29 120.857 42.906 118.981 41.941 118.476 C 40.983 117.971 39.409 117.802 40.072 117.219 C 40.188 117.115 40.218 117.019 40.414 117.01 C 40.61 117.001 41.256 117.26 41.299 117.279 C 41.336 117.301 43.013 117.989 43.075 118.012 C 43.137 118.039 44.073 118.44 44.744 118.832 C 45.416 119.228 46.502 119.988 46.502 119.988 L 46.964 120.384 Z M 78.345 147.395 C 78.653 148.374 74.773 145.346 72.694 143.745 C 67.182 139.506 60.436 130.808 61.278 130.043 C 61.979 129.406 64.743 133.39 68.796 137.775 C 73.122 142.454 78.163 146.816 78.345 147.395 M 94.543 143.236 C 93.346 144.521 92.918 146.165 93.609 147.394 C 94.293 148.586 94.502 145.65 95.256 144.775 C 95.9 144.029 96.295 144.142 97.369 143.386 C 99.193 142.1 96.068 141.604 94.543 143.236 M 87.645 115.794 C 86.827 115.657 86.854 116.909 86.971 117.806 C 87.518 121.795 89.307 124.869 91.698 127.769 C 93.155 129.526 97.145 132.668 97.614 132.167 C 97.782 131.985 93.811 128.925 91.289 124.986 C 89.5 122.194 88.539 119.822 88.319 117.518 C 88.291 117.232 88.36 115.908 87.645 115.794 M 72.205 56.648 C 70.404 57.627 67.285 58.483 67.285 58.483 C 67.285 58.483 67.141 58.788 67.542 58.756 C 70.213 58.547 71.23 58.205 72.658 57.581 C 74.078 56.962 75.119 55.254 75.119 55.254 C 75.119 55.254 75.693 54.202 74.616 55.072 C 74.288 55.337 73.188 56.107 72.205 56.648 M 93.902 49.791 C 93.902 49.791 93.291 49.654 92.881 49.91 C 92.473 50.169 92.59 50.379 92.59 50.379 C 92.59 50.379 93.219 50.871 93.674 50.944 C 94.129 51.012 95.104 51.436 95.059 51.108 C 95.022 50.776 94.475 50.17 94.293 50.006 C 94.102 49.841 93.902 49.791 93.902 49.791 M 83.688 68.529 C 83.795 68.743 85.62 68.247 86.317 67.855 C 86.873 67.545 87.082 66.512 87.082 66.512 C 87.082 66.512 87.237 65.506 87 65.892 C 85.955 67.591 83.586 68.31 83.688 68.529 M 83.629 63.848 C 84.365 62.441 81.605 65.319 80.2 66.066 C 79.342 66.521 77.949 67.118 77.949 67.118 C 77.949 67.118 77.58 67.578 78.095 67.541 C 78.612 67.5 79.926 67.951 80.98 67.122 C 81.228 66.931 82.341 65.319 82.341 65.319 C 82.341 65.319 83.274 64.526 83.629 63.848 M 83.203 69.867 C 83.256 70.099 86.357 70.017 87.131 69.794 C 87.736 69.617 88.065 68.533 88.065 68.533 C 88.065 68.533 88.438 67.591 88.125 67.914 C 86.725 69.339 83.152 69.631 83.203 69.867 M 33.559 98.176 C 33.559 98.176 33.088 98.008 32.505 98.886 C 31.927 99.756 29.327 103.699 29.791 104.286 C 30.337 104.974 32.589 100.757 33.274 99.965 C 33.964 99.177 33.689 98.367 33.689 98.367 C 33.689 98.367 33.68 98.19 33.559 98.176 M 90.223 169.452 C 89.95 170.764 90.287 173.439 90.733 173.969 C 91.836 175.299 91.161 171.893 91.315 170.699 C 91.448 169.579 91.594 169.197 92.135 168.004 C 93.119 165.863 90.805 166.656 90.223 169.452 M 80.738 55.232 C 80.738 55.232 79.88 55.251 79.208 55.619 C 78.537 55.993 78.359 56.507 78.359 56.507 C 78.359 56.507 78.225 56.881 78.318 57.09 C 78.514 57.546 79.436 56.858 80.089 57.086 C 80.617 57.273 80.868 57.423 81.264 57.905 C 81.615 58.329 82.234 58.93 82.621 58.588 C 83.008 58.247 82.869 57.395 82.869 57.395 C 82.869 57.395 82.411 56.001 81.815 55.601 C 81.218 55.205 80.738 55.232 80.738 55.232 M 66.488 65.054 C 66.488 65.054 66.012 65.132 66.124 65.71 C 66.238 66.289 66.549 66.197 66.549 66.197 C 66.549 66.197 67.542 65.774 67.476 65.177 C 67.417 64.572 66.488 65.054 66.488 65.054 M 59.53 61.935 C 59.53 61.935 59.009 61.954 58.644 62.6 C 58.278 63.246 58.066 63.912 58.066 63.912 C 58.066 63.912 57.891 64.763 58.198 65.027 C 58.506 65.296 58.836 64.476 59.275 64.167 C 59.541 63.976 59.703 63.885 59.974 63.698 C 60.348 63.439 60.953 63.771 60.908 63.015 C 60.86 62.259 60.054 61.899 59.53 61.935 M 82.01 53.839 C 82.01 53.839 80.826 53.671 80.872 54.126 C 80.911 54.545 81.516 54.294 81.903 54.468 C 82.281 54.632 82.522 54.7 82.824 54.982 C 83.046 55.178 83.019 55.565 83.292 55.569 C 83.669 55.574 83.589 55.423 83.589 55.423 C 83.589 55.423 83.251 54.403 82.806 54.107 C 82.366 53.821 82.01 53.839 82.01 53.839 M 95.223 58.611 C 95.049 59.253 94.946 59.481 94.946 59.481 C 94.946 59.481 94.612 60.788 95.938 60.305 C 97.258 59.813 96.582 60.023 97.526 59.563 C 98.469 59.103 98.438 59.354 99.13 59.385 C 99.365 59.394 99.513 59.408 99.867 59.335 C 100.163 59.276 100.04 58.917 99.376 58.739 C 98.66 58.548 97.772 58.598 96.753 58.584 C 96.16 58.579 95.395 57.974 95.223 58.611 M 95.805 53.766 C 95.805 53.766 95.196 53.634 94.785 53.889 C 94.371 54.149 94.494 54.353 94.494 54.353 C 94.494 54.353 95.127 54.85 95.578 54.918 C 96.033 54.995 97.008 55.414 96.971 55.082 C 96.926 54.75 96.379 54.149 96.198 53.98 C 96.083 53.882 95.949 53.81 95.805 53.766 M 98.137 62.855 C 98.137 62.855 97.485 62.728 97.043 62.978 C 96.598 63.224 96.729 63.415 96.729 63.415 C 96.729 63.415 97.409 63.879 97.891 63.948 C 98.373 64.012 99.42 64.408 99.379 64.094 C 99.338 63.784 98.756 63.215 98.555 63.055 C 98.356 62.9 98.137 62.855 98.137 62.855 M 98.328 66.156 C 98.328 66.156 97.64 66.006 97.172 66.288 C 96.707 66.565 96.848 66.793 96.848 66.793 C 96.848 66.793 97.563 67.326 98.073 67.408 C 98.59 67.485 99.686 67.936 99.639 67.576 C 99.594 67.221 98.985 66.565 98.774 66.383 C 98.565 66.207 98.328 66.156 98.328 66.156 M 98.643 69.371 C 98.643 69.371 97.895 69.203 97.391 69.517 C 96.885 69.836 97.036 70.086 97.036 70.086 C 97.036 70.086 97.813 70.691 98.364 70.778 C 98.922 70.864 100.114 71.383 100.067 70.983 C 100.018 70.578 99.348 69.836 99.121 69.631 C 98.893 69.43 98.643 69.371 98.643 69.371 M 98.565 73.346 C 98.565 73.346 97.823 73.178 97.313 73.496 C 96.807 73.81 96.961 74.065 96.961 74.065 C 96.961 74.065 97.736 74.666 98.291 74.753 C 98.848 74.844 100.049 75.358 99.994 74.953 C 99.943 74.548 99.275 73.81 99.047 73.605 C 98.908 73.484 98.743 73.395 98.565 73.346 M 98.024 81.092 C 98.024 81.092 97.276 80.924 96.77 81.242 C 96.266 81.556 96.416 81.811 96.416 81.811 C 96.416 81.811 97.189 82.417 97.744 82.503 C 98.301 82.594 99.502 83.104 99.447 82.703 C 99.398 82.298 98.728 81.556 98.5 81.35 C 98.274 81.151 98.024 81.092 98.024 81.092 M 98.527 77.212 C 98.527 77.212 97.668 77.021 97.08 77.385 C 96.498 77.749 96.674 78.041 96.674 78.041 C 96.674 78.041 97.572 78.742 98.209 78.842 C 98.852 78.942 100.24 79.539 100.176 79.074 C 100.121 78.605 99.348 77.749 99.084 77.516 C 98.82 77.28 98.527 77.212 98.527 77.212 M 97.654 84.589 C 97.654 84.589 97.043 84.448 96.625 84.712 C 96.205 84.971 96.334 85.181 96.334 85.181 C 96.334 85.181 96.971 85.678 97.432 85.75 C 97.887 85.823 98.87 86.251 98.828 85.914 C 98.787 85.581 98.236 84.971 98.051 84.803 C 97.863 84.634 97.654 84.589 97.654 84.589 M 97.076 87.949 C 97.076 87.949 96.57 87.835 96.224 88.054 C 95.877 88.268 95.978 88.441 95.978 88.441 C 95.978 88.441 96.51 88.856 96.887 88.915 C 97.267 88.974 98.084 89.325 98.049 89.052 C 98.017 88.774 97.562 88.269 97.405 88.128 C 97.31 88.045 97.198 87.984 97.076 87.949 M 96.361 91.009 C 96.361 91.009 95.9 90.904 95.586 91.1 C 95.277 91.291 95.367 91.451 95.367 91.451 C 95.367 91.451 95.842 91.825 96.187 91.875 C 96.529 91.934 97.267 92.248 97.24 92.002 C 97.207 91.752 96.797 91.292 96.656 91.173 C 96.516 91.045 96.361 91.009 96.361 91.009 M 95.633 93.518 C 95.633 93.518 95.168 93.414 94.858 93.604 C 94.549 93.8 94.639 93.959 94.639 93.959 C 94.639 93.959 95.118 94.328 95.459 94.382 C 95.805 94.441 96.539 94.756 96.506 94.505 C 96.475 94.259 96.065 93.799 95.924 93.676 C 95.787 93.555 95.633 93.518 95.633 93.518 M 94.758 96.428 C 94.758 96.428 94.385 96.342 94.139 96.501 C 93.883 96.661 93.961 96.788 93.961 96.788 C 93.961 96.788 94.348 97.084 94.621 97.134 C 94.898 97.175 95.496 97.43 95.469 97.229 C 95.442 97.029 95.11 96.66 94.994 96.56 C 94.927 96.498 94.846 96.453 94.758 96.428 M 93.711 99.155 C 93.711 99.155 93.393 99.087 93.178 99.219 C 92.959 99.351 93.024 99.465 93.024 99.465 C 93.024 99.465 93.356 99.72 93.592 99.757 C 93.828 99.798 94.344 100.017 94.326 99.843 C 94.303 99.675 94.012 99.351 93.92 99.265 C 93.86 99.213 93.788 99.175 93.711 99.155 M 92.631 101.742 C 92.631 101.742 92.309 101.674 92.098 101.81 C 91.875 101.942 91.944 102.051 91.944 102.051 C 91.944 102.051 92.282 102.311 92.518 102.347 C 92.754 102.388 93.264 102.611 93.247 102.434 C 93.22 102.261 92.935 101.942 92.837 101.855 C 92.739 101.768 92.631 101.742 92.631 101.742 M 22.601 114.915 C 22.601 114.915 22.061 115.962 22.326 116.536 C 22.593 117.11 23.321 115.62 23.321 115.62 C 23.321 115.62 24.074 114.131 23.767 113.858 C 23.455 113.581 23.277 114.355 22.601 114.915" fill="#fff"/>
  <path d="M 63.662 207.082 C 63.662 207.082 63.257 206.559 62.874 206.939 C 62.491 207.323 61.993 207.933 61.107 207.874 C 60.217 207.807 59.835 207.669 59.334 207.455 C 58.84 207.236 58.146 206.909 58.146 206.909 C 58.146 206.909 56.338 206.212 54.804 206.176 C 53.274 206.135 50.77 206.774 49.558 208.088 C 48.345 209.395 48.037 210.757 48.037 210.757 C 48.037 210.757 47.632 213.149 48.327 214.24 C 49.021 215.342 49.777 216.521 51.46 217.554 C 53.149 218.587 53.884 218.97 53.884 218.97 L 56.814 220.318 L 59.522 221.339 C 59.522 221.339 63.436 222.509 63.911 225.469 C 64.385 228.43 62.609 232.258 57.206 232.61 C 51.89 232.957 49.301 230.375 48.473 228.721 C 47.646 227.059 48.122 225.657 48.122 225.657 L 48.345 225.202 L 48.554 225.098 C 48.554 225.098 49.381 225.658 50.191 225.552 C 50.999 225.448 52.486 224.473 52.178 222.884 C 51.866 221.29 50.439 220.94 49.753 220.998 C 49.072 221.059 46.026 221.846 45.967 226.275 C 45.905 230.702 49.94 233.06 49.94 233.06 C 49.94 233.06 52.797 234.839 56.023 234.699 C 59.251 234.553 61.922 233.269 61.922 233.269 C 61.922 233.269 66.701 230.892 66.828 225.697 C 66.949 220.507 63.661 218.679 63.661 218.679 C 63.661 218.679 62.482 217.855 61.405 217.355 C 60.181 216.784 58.96 216.204 57.744 215.616 L 55.115 214.418 L 53.521 213.53 L 52.628 212.929 C 52.628 212.929 50.5 211.252 51.635 209.431 C 52.774 207.611 56.066 208.292 56.066 208.292 C 56.066 208.292 58.611 208.829 60.597 210.259 C 62.585 211.685 63.746 213.402 63.746 213.402 L 64.57 214.751 L 64.672 214.938 L 65.378 214.692 C 65.378 214.692 64.28 211.629 64.071 210.343 C 63.867 209.063 63.662 207.082 63.662 207.082 M 95.168 224.6 C 95.168 224.6 95.879 225.387 96.824 225.387 C 97.781 225.387 99.137 224.723 99.119 223.005 C 99.101 221.289 97.363 220.829 97.363 220.829 C 97.363 220.829 94.734 220.21 93.455 222.883 C 92.172 225.551 92.873 227.868 92.873 227.868 C 92.873 227.868 93.475 231.471 97.281 233.601 C 101.087 235.73 105.168 234.161 105.168 234.161 C 105.168 234.161 108.227 233.144 110.877 230.163 C 113.527 227.185 114.789 223.646 114.789 223.646 L 115.717 221.33 L 116.834 221.351 C 116.834 221.351 118.391 221.497 119.482 220.605 C 120.586 219.711 121.267 218.493 121.267 218.493 L 121.41 218.124 L 120.703 217.796 C 120.703 217.796 119.902 218.848 118.781 218.953 C 117.666 219.053 116.506 218.866 116.506 218.866 L 117.58 215.988 C 117.58 215.988 118.822 213.484 119.178 212.904 C 119.53 212.327 120.977 210.465 120.977 210.465 C 120.977 210.465 123.956 210.447 126.832 209.846 C 129.711 209.245 131.486 208.522 131.486 208.522 L 135.047 207.05 L 135.916 206.576 L 135.648 205.87 C 135.648 205.87 132.441 207.009 127.697 207.551 C 122.963 208.088 119.984 207.51 119.984 207.51 L 114.601 206.677 C 114.601 206.677 112.965 206.412 111.705 206.391 C 110.445 206.371 107.871 206.841 107.871 206.841 C 107.871 206.841 105.312 207.423 104.156 208.293 C 102.99 209.163 100.24 211.193 101.506 214.295 C 102.764 217.4 107.918 215.742 108.647 213.443 C 108.621 213.464 108.934 212.701 108.934 212.701 L 109.02 212.286 L 108.58 212.118 L 108.063 212.719 C 108.063 212.719 106.141 214.336 104.649 213.297 C 103.166 212.264 104.174 210.82 104.321 210.651 C 104.463 210.489 105.268 209.514 107.194 209.082 C 109.12 208.65 112.016 209.351 112.016 209.351 L 115.162 209.929 C 115.162 209.929 116.9 210.261 116.978 210.261 C 117.064 210.261 117.624 210.343 117.624 210.343 L 116.525 211.564 C 116.525 211.564 114.931 213.094 113.812 215.312 C 112.697 217.525 112.181 218.681 112.181 218.681 L 112.072 218.849 C 112.072 218.849 110.671 219.013 109.783 219.55 C 108.89 220.088 108.312 220.916 108.312 220.916 L 107.896 221.663 L 108.454 222.137 C 108.454 222.137 109.097 221.412 109.884 221.208 C 110.671 220.998 111.27 221.312 111.27 221.312 C 111.27 221.312 110.13 224.123 109.593 225.137 C 109.056 226.151 108.145 228.015 106.862 229.4 C 105.583 230.784 104.649 231.99 101.712 232.404 C 98.774 232.814 96.702 230.929 95.939 230.001 C 95.169 229.072 94.718 227.661 94.677 226.632 C 94.631 225.592 95.168 224.6 95.168 224.6" fill="#231f20"/>
</svg>